<?xml version="1.0" encoding="UTF-8"?><svg xmlns="http://www.w3.org/2000/svg" xmlns:xlink="http://www.w3.org/1999/xlink" viewBox="0 0 24 24" version="1.1"><path d="M5 3c-1.102 0-2 .898-2 2v14c0 1.102.898 2 2 2h14c1.102 0 2-.898 2-2V5c0-1.102-.898-2-2-2zm10.5 4.5a.907.907 0 1 1-.001 1.814A.907.907 0 0 1 15.5 7.5zm-5.813.406h1.626l2.687 8.5h-1.906l-.5-1.718H9.313l-.5 1.718H7zm5 2.188h1.72v6.312h-1.72zm-4.187.094l-.813 3h1.626z" id="surface1"/><metadata><rdf:RDF xmlns:rdf="http://www.w3.org/1999/02/22-rdf-syntax-ns#" xmlns:rdfs="http://www.w3.org/2000/01/rdf-schema#" xmlns:dc="http://purl.org/dc/elements/1.1/"><rdf:Description about="https://iconscout.com/legal#licenses" dc:title="adobe,illustrator" dc:description="adobe,illustrator" dc:publisher="Iconscout" dc:date="2018-06-22" dc:format="image/svg+xml" dc:language="en"><dc:creator><rdf:Bag><rdf:li>Icons8</rdf:li></rdf:Bag></dc:creator></rdf:Description></rdf:RDF></metadata></svg>