<?xml version="1.0" encoding="UTF-8"?><svg xmlns="http://www.w3.org/2000/svg" xmlns:xlink="http://www.w3.org/1999/xlink" viewBox="0 0 24 24" version="1.1"><path d="M5 3c-1.102 0-2 .898-2 2v14c0 1.102.898 2 2 2h14c1.102 0 2-.898 2-2V5c0-1.102-.898-2-2-2zm1.5 4.688h2.906c2.5 0 2.781 2.312 2.781 2.812 0 2-1.386 2.688-2.687 2.688H8.312v3H6.5zm1.813 1.406v2.719H9.5c.8 0 1-.614 1-1.313 0-.7-.3-1.406-1-1.406zm7.093.719c1.5 0 2.281.898 2.281 2H16c0-.5-.195-.813-.594-.813-.3 0-.594.195-.594.594 0 1 2.876.707 2.876 2.906 0 1.5-1.481 1.813-2.282 1.813-1.601 0-2.406-1.125-2.406-2.125h1.594c0 .8.613.906.812.906.399 0 .688-.196.688-.594 0-.898-2.907-.813-2.907-2.813 0-1.5 1.418-1.874 2.22-1.874z" id="surface1"/><metadata><rdf:RDF xmlns:rdf="http://www.w3.org/1999/02/22-rdf-syntax-ns#" xmlns:rdfs="http://www.w3.org/2000/01/rdf-schema#" xmlns:dc="http://purl.org/dc/elements/1.1/"><rdf:Description about="https://iconscout.com/legal#licenses" dc:title="adobe,photoshop" dc:description="adobe,photoshop" dc:publisher="Iconscout" dc:date="2018-06-22" dc:format="image/svg+xml" dc:language="en"><dc:creator><rdf:Bag><rdf:li>Icons8</rdf:li></rdf:Bag></dc:creator></rdf:Description></rdf:RDF></metadata></svg>