<svg width="701" height="125" viewBox="0 0 701 125" fill="none" xmlns="http://www.w3.org/2000/svg">
<path d="M14.162 7.48C16.514 7.48 17.648 9.748 17.648 11.554C17.648 13.402 16.388 15.628 13.994 15.628H8.576V7.48H14.162ZM2.402 31H8.576V21.004H14.288C20.882 21.004 23.822 16.384 23.822 11.554C23.822 6.808 20.882 2.062 14.288 2.062H2.402V31ZM42.5816 31H48.3776V11.386H42.5816V13.57C40.9856 11.428 38.1716 10.966 36.8696 10.966C31.8716 10.966 26.8736 14.914 26.8736 21.172C26.8736 27.43 31.8716 31.378 36.8696 31.378C38.3396 31.378 41.3636 30.622 42.5816 28.774V31ZM32.9216 21.172C32.9216 18.358 35.3576 16.51 37.8356 16.51C40.2296 16.51 42.5816 18.274 42.5816 21.172C42.5816 24.112 40.2296 25.834 37.8356 25.834C35.3576 25.834 32.9216 23.986 32.9216 21.172ZM62.6704 23.608C64.1404 23.986 64.6024 24.448 64.6024 25.288C64.6024 26.296 63.5104 26.884 62.2084 26.926C60.5704 26.926 59.3524 25.792 59.3104 24.658H53.8504C53.8504 29.026 58.0924 31.42 62.0404 31.42C66.1564 31.42 70.5244 29.446 70.5244 25.288C70.5244 23.986 69.9364 20.92 65.1904 19.576L61.8724 18.694C60.6964 18.4 60.1924 17.854 60.1504 17.224C60.1084 16.342 60.9064 15.754 62.2084 15.754C63.1744 15.754 64.3924 16.006 64.4344 17.476H69.9364C69.9364 12.646 65.7364 10.966 61.8724 10.966C57.7564 10.966 54.2284 13.654 54.2284 16.552C54.2284 18.358 54.1864 21.382 60.1084 22.936L62.6704 23.608ZM83.5358 23.608C85.0058 23.986 85.4678 24.448 85.4678 25.288C85.4678 26.296 84.3758 26.884 83.0738 26.926C81.4358 26.926 80.2178 25.792 80.1758 24.658H74.7158C74.7158 29.026 78.9578 31.42 82.9058 31.42C87.0218 31.42 91.3898 29.446 91.3898 25.288C91.3898 23.986 90.8018 20.92 86.0558 19.576L82.7378 18.694C81.5618 18.4 81.0578 17.854 81.0158 17.224C80.9738 16.342 81.7718 15.754 83.0738 15.754C84.0398 15.754 85.2578 16.006 85.2998 17.476H90.8018C90.8018 12.646 86.6018 10.966 82.7378 10.966C78.6218 10.966 75.0938 13.654 75.0938 16.552C75.0938 18.358 75.0518 21.382 80.9738 22.936L83.5358 23.608ZM102.553 11.386H96.7573V31H102.553V11.386ZM96.0013 4.12C96.0013 6.01 97.6813 7.564 99.6553 7.564C101.671 7.564 103.225 6.01 103.225 4.12C103.225 2.146 101.629 0.717999 99.6553 0.717999C97.6813 0.717999 96.0013 2.188 96.0013 4.12ZM118.162 25.624C115.768 25.624 113.752 23.86 113.752 21.13C113.752 18.442 115.768 16.678 118.162 16.678C120.64 16.678 122.614 18.442 122.614 21.13C122.614 23.86 120.64 25.624 118.162 25.624ZM118.162 31.336C123.706 31.336 128.368 27.304 128.368 21.13C128.368 14.914 123.706 10.966 118.162 10.966C112.576 10.966 107.998 14.914 107.998 21.13C107.998 27.304 112.576 31.336 118.162 31.336ZM139.65 20.626C139.65 17.644 141.204 16.636 143.262 16.636C145.236 16.636 146.664 17.896 146.664 20.542V31H152.502V19.282C152.502 13.696 149.73 10.966 145.32 10.966C142.968 10.966 140.7 12.268 139.65 14.242V11.386H133.812V31H139.65V20.626ZM173.476 31H179.272V11.386H173.476V13.57C171.88 11.428 169.066 10.966 167.764 10.966C162.766 10.966 157.768 14.914 157.768 21.172C157.768 27.43 162.766 31.378 167.764 31.378C169.234 31.378 172.258 30.622 173.476 28.774V31ZM163.816 21.172C163.816 18.358 166.252 16.51 168.73 16.51C171.124 16.51 173.476 18.274 173.476 21.172C173.476 24.112 171.124 25.834 168.73 25.834C166.252 25.834 163.816 23.986 163.816 21.172ZM193.564 11.386V3.868H187.768V11.386H184.198V16.006H187.768V31H193.564V16.006H197.68V11.386H193.564ZM216.009 24.532C215.043 25.834 213.363 26.38 211.725 26.38C209.625 26.38 207.231 25.372 206.895 23.104H221.259C221.301 22.6 221.343 21.802 221.343 21.298C221.343 15.124 216.891 10.966 211.305 10.966C205.719 10.966 201.057 14.914 201.057 21.13C201.057 27.304 205.719 31.42 211.305 31.42C214.665 31.42 218.235 30.37 220.251 27.43L216.009 24.532ZM206.979 19.45C207.441 16.93 209.751 16.09 211.347 16.09C213.027 16.09 215.127 17.056 215.463 19.45H206.979ZM252.631 31H258.427V11.386H252.631V13.57C251.035 11.428 248.221 10.966 246.919 10.966C241.921 10.966 236.923 14.914 236.923 21.172C236.923 27.43 241.921 31.378 246.919 31.378C248.389 31.378 251.413 30.622 252.631 28.774V31ZM242.971 21.172C242.971 18.358 245.407 16.51 247.885 16.51C250.279 16.51 252.631 18.274 252.631 21.172C252.631 24.112 250.279 25.834 247.885 25.834C245.407 25.834 242.971 23.986 242.971 21.172ZM270.998 21.13C270.998 18.232 273.182 16.468 275.534 16.468C278.054 16.468 280.07 18.274 280.07 21.13C280.07 24.028 278.012 25.876 275.534 25.876C273.056 25.876 270.998 23.986 270.998 21.13ZM270.872 31V28.564C271.838 30.37 274.148 31.42 276.626 31.42C281.666 31.42 286.118 27.472 286.118 21.256C286.118 14.956 281.666 10.966 276.626 10.966C274.148 10.966 271.838 11.974 270.872 13.78V0.717999H265.076V31H270.872ZM300.589 25.624C298.195 25.624 296.179 23.86 296.179 21.13C296.179 18.442 298.195 16.678 300.589 16.678C303.067 16.678 305.041 18.442 305.041 21.13C305.041 23.86 303.067 25.624 300.589 25.624ZM300.589 31.336C306.133 31.336 310.795 27.304 310.795 21.13C310.795 14.914 306.133 10.966 300.589 10.966C295.003 10.966 290.425 14.914 290.425 21.13C290.425 27.304 295.003 31.336 300.589 31.336ZM328.882 21.76C328.882 24.742 327.16 25.75 325.354 25.75C324.01 25.75 321.868 24.994 321.868 21.844V11.386H316.03V23.104C316.03 28.69 319.39 31.42 323.8 31.42C325.69 31.42 327.832 30.286 328.882 28.312V31H334.72V11.386H328.882V21.76ZM349.015 11.386V3.868H343.219V11.386H339.649V16.006H343.219V31H349.015V16.006H353.131V11.386H349.015ZM374.587 21.13C374.587 18.232 376.771 16.468 379.123 16.468C381.643 16.468 383.659 18.274 383.659 21.13C383.659 24.028 381.601 25.876 379.123 25.876C376.645 25.876 374.587 23.986 374.587 21.13ZM374.461 31V28.564C375.427 30.37 377.737 31.42 380.215 31.42C385.255 31.42 389.707 27.472 389.707 21.256C389.707 14.956 385.255 10.966 380.215 10.966C377.737 10.966 375.427 11.974 374.461 13.78V0.717999H368.665V31H374.461ZM407.832 21.76C407.832 24.742 406.11 25.75 404.304 25.75C402.96 25.75 400.818 24.994 400.818 21.844V11.386H394.98V23.104C394.98 28.69 398.34 31.42 402.75 31.42C404.64 31.42 406.782 30.286 407.832 28.312V31H413.67V11.386H407.832V21.76ZM426.117 11.386H420.321V31H426.117V11.386ZM419.565 4.12C419.565 6.01 421.245 7.564 423.219 7.564C425.235 7.564 426.789 6.01 426.789 4.12C426.789 2.146 425.193 0.717999 423.219 0.717999C421.245 0.717999 419.565 2.188 419.565 4.12ZM432.738 0.717999V31H438.576V0.717999H432.738ZM459.181 21.13C459.181 23.986 457.123 25.876 454.645 25.876C452.167 25.876 450.109 24.028 450.109 21.13C450.109 18.274 452.125 16.468 454.645 16.468C456.997 16.468 459.181 18.232 459.181 21.13ZM465.103 31V0.717999H459.307V13.78C458.341 11.974 456.031 10.966 453.553 10.966C448.513 10.966 444.061 14.956 444.061 21.256C444.061 27.472 448.513 31.42 453.553 31.42C456.031 31.42 458.341 30.37 459.307 28.564V31H465.103ZM477.517 11.386H471.721V31H477.517V11.386ZM470.965 4.12C470.965 6.01 472.645 7.564 474.619 7.564C476.635 7.564 478.189 6.01 478.189 4.12C478.189 2.146 476.593 0.717999 474.619 0.717999C472.645 0.717999 470.965 2.188 470.965 4.12ZM489.975 20.626C489.975 17.644 491.529 16.636 493.587 16.636C495.561 16.636 496.989 17.896 496.989 20.542V31H502.827V19.282C502.827 13.696 500.055 10.966 495.645 10.966C493.293 10.966 491.025 12.268 489.975 14.242V11.386H484.137V31H489.975V20.626ZM523.632 21.13C523.632 24.028 521.28 25.918 518.886 25.918C516.366 25.918 514.182 24.028 514.182 21.13C514.182 18.358 516.366 16.51 518.886 16.51C521.322 16.51 523.632 18.232 523.632 21.13ZM508.68 34.696C510.36 38.35 514.014 40.786 518.34 40.786C525.27 40.786 529.428 36.712 529.428 28.27V11.386H523.758V13.822C522.75 12.058 520.314 10.966 517.878 10.966C512.838 10.966 508.092 14.956 508.092 21.256C508.092 27.472 512.838 31.42 517.878 31.42C520.356 31.42 522.792 30.37 523.758 28.564C523.968 32.428 522.834 35.536 518.34 35.536C516.366 35.536 514.056 34.234 513.384 32.386L508.68 34.696ZM553.432 24.154C553.432 18.946 554.944 16.342 558.304 16.342C559.27 16.342 560.236 16.426 561.286 16.93L562.336 11.68C561.37 11.218 560.362 10.966 558.976 10.966C556.96 10.966 554.44 12.478 553.432 16.132V11.386H547.594V31H553.432V24.154ZM580.062 24.532C579.096 25.834 577.416 26.38 575.778 26.38C573.678 26.38 571.284 25.372 570.948 23.104H585.312C585.354 22.6 585.396 21.802 585.396 21.298C585.396 15.124 580.944 10.966 575.358 10.966C569.772 10.966 565.11 14.914 565.11 21.13C565.11 27.304 569.772 31.42 575.358 31.42C578.718 31.42 582.288 30.37 584.304 27.43L580.062 24.532ZM571.032 19.45C571.494 16.93 573.804 16.09 575.4 16.09C577.08 16.09 579.18 17.056 579.516 19.45H571.032ZM590.638 0.717999V31H596.476V0.717999H590.638ZM608.891 11.386H603.095V31H608.891V11.386ZM602.339 4.12C602.339 6.01 604.019 7.564 605.993 7.564C608.009 7.564 609.563 6.01 609.563 4.12C609.563 2.146 607.967 0.717999 605.993 0.717999C604.019 0.717999 602.339 2.188 602.339 4.12ZM630.043 31H635.839V11.386H630.043V13.57C628.447 11.428 625.633 10.966 624.331 10.966C619.333 10.966 614.335 14.914 614.335 21.172C614.335 27.43 619.333 31.378 624.331 31.378C625.801 31.378 628.825 30.622 630.043 28.774V31ZM620.383 21.172C620.383 18.358 622.819 16.51 625.297 16.51C627.691 16.51 630.043 18.274 630.043 21.172C630.043 24.112 627.691 25.834 625.297 25.834C622.819 25.834 620.383 23.986 620.383 21.172ZM648.41 21.13C648.41 18.232 650.594 16.468 652.946 16.468C655.466 16.468 657.482 18.274 657.482 21.13C657.482 24.028 655.424 25.876 652.946 25.876C650.468 25.876 648.41 23.986 648.41 21.13ZM648.284 31V28.564C649.25 30.37 651.56 31.42 654.038 31.42C659.078 31.42 663.53 27.472 663.53 21.256C663.53 14.956 659.078 10.966 654.038 10.966C651.56 10.966 649.25 11.974 648.284 13.78V0.717999H642.488V31H648.284ZM669.014 0.717999V31H674.852V0.717999H669.014ZM695.247 24.532C694.281 25.834 692.601 26.38 690.963 26.38C688.863 26.38 686.469 25.372 686.133 23.104H700.497C700.539 22.6 700.581 21.802 700.581 21.298C700.581 15.124 696.129 10.966 690.543 10.966C684.957 10.966 680.295 14.914 680.295 21.13C680.295 27.304 684.957 31.42 690.543 31.42C693.903 31.42 697.473 30.37 699.489 27.43L695.247 24.532ZM686.217 19.45C686.679 16.93 688.989 16.09 690.585 16.09C692.265 16.09 694.365 17.056 694.701 19.45H686.217ZM9.332 65.608C10.802 65.986 11.264 66.448 11.264 67.288C11.264 68.296 10.172 68.884 8.87 68.926C7.232 68.926 6.014 67.792 5.972 66.658H0.512C0.512 71.026 4.754 73.42 8.702 73.42C12.818 73.42 17.186 71.446 17.186 67.288C17.186 65.986 16.598 62.92 11.852 61.576L8.534 60.694C7.358 60.4 6.854 59.854 6.812 59.224C6.77 58.342 7.568 57.754 8.87 57.754C9.836 57.754 11.054 58.006 11.096 59.476H16.598C16.598 54.646 12.398 52.966 8.534 52.966C4.418 52.966 0.89 55.654 0.89 58.552C0.89 60.358 0.848 63.382 6.77 64.936L9.332 65.608ZM40.8304 53.386H34.6144L30.2464 64.516L25.9204 53.386H19.7044L27.2644 70.984L22.5604 82.618H28.7344L40.8304 53.386ZM52.3754 65.608C53.8454 65.986 54.3074 66.448 54.3074 67.288C54.3074 68.296 53.2154 68.884 51.9134 68.926C50.2754 68.926 49.0574 67.792 49.0154 66.658H43.5554C43.5554 71.026 47.7974 73.42 51.7454 73.42C55.8614 73.42 60.2294 71.446 60.2294 67.288C60.2294 65.986 59.6414 62.92 54.8954 61.576L51.5774 60.694C50.4014 60.4 49.8974 59.854 49.8554 59.224C49.8134 58.342 50.6114 57.754 51.9134 57.754C52.8794 57.754 54.0974 58.006 54.1394 59.476H59.6414C59.6414 54.646 55.4414 52.966 51.5774 52.966C47.4614 52.966 43.9334 55.654 43.9334 58.552C43.9334 60.358 43.8914 63.382 49.8134 64.936L52.3754 65.608ZM73.2409 53.386V45.868H67.4449V53.386H63.8749V58.006H67.4449V73H73.2409V58.006H77.3569V53.386H73.2409ZM95.6856 66.532C94.7196 67.834 93.0396 68.38 91.4016 68.38C89.3016 68.38 86.9076 67.372 86.5716 65.104H100.936C100.978 64.6 101.02 63.802 101.02 63.298C101.02 57.124 96.5676 52.966 90.9816 52.966C85.3956 52.966 80.7336 56.914 80.7336 63.13C80.7336 69.304 85.3956 73.42 90.9816 73.42C94.3416 73.42 97.9116 72.37 99.9276 69.43L95.6856 66.532ZM86.6556 61.45C87.1176 58.93 89.4276 58.09 91.0236 58.09C92.7036 58.09 94.8036 59.056 95.1396 61.45H86.6556ZM127.933 58.636C129.655 58.636 131.167 59.98 131.167 62.542V73H136.963V61.87C136.963 55.948 134.107 52.966 129.403 52.966C127.975 52.966 125.455 53.386 123.523 56.452C122.431 54.142 120.331 53.008 117.223 53.008C115.081 53.008 113.065 54.184 112.099 56.242V53.386H106.261V73H112.099V62.626C112.099 59.644 113.695 58.636 115.501 58.636C117.181 58.636 118.693 59.896 118.735 62.416V73H124.573V62.626C124.573 59.77 126.085 58.636 127.933 58.636ZM151.013 65.608C152.483 65.986 152.945 66.448 152.945 67.288C152.945 68.296 151.853 68.884 150.551 68.926C148.913 68.926 147.695 67.792 147.653 66.658H142.193C142.193 71.026 146.435 73.42 150.383 73.42C154.499 73.42 158.867 71.446 158.867 67.288C158.867 65.986 158.279 62.92 153.533 61.576L150.215 60.694C149.039 60.4 148.535 59.854 148.493 59.224C148.451 58.342 149.249 57.754 150.551 57.754C151.517 57.754 152.735 58.006 152.777 59.476H158.279C158.279 54.646 154.079 52.966 150.215 52.966C146.099 52.966 142.571 55.654 142.571 58.552C142.571 60.358 142.529 63.382 148.451 64.936L151.013 65.608ZM190.28 73H196.076V53.386H190.28V55.57C188.684 53.428 185.87 52.966 184.568 52.966C179.57 52.966 174.572 56.914 174.572 63.172C174.572 69.43 179.57 73.378 184.568 73.378C186.038 73.378 189.062 72.622 190.28 70.774V73ZM180.62 63.172C180.62 60.358 183.056 58.51 185.534 58.51C187.928 58.51 190.28 60.274 190.28 63.172C190.28 66.112 187.928 67.834 185.534 67.834C183.056 67.834 180.62 65.986 180.62 63.172ZM208.563 62.626C208.563 59.644 210.117 58.636 212.175 58.636C214.149 58.636 215.577 59.896 215.577 62.542V73H221.415V61.282C221.415 55.696 218.643 52.966 214.233 52.966C211.881 52.966 209.613 54.268 208.563 56.242V53.386H202.725V73H208.563V62.626ZM241.842 63.13C241.842 65.986 239.784 67.876 237.306 67.876C234.828 67.876 232.77 66.028 232.77 63.13C232.77 60.274 234.786 58.468 237.306 58.468C239.658 58.468 241.842 60.232 241.842 63.13ZM247.764 73V42.718H241.968V55.78C241.002 53.974 238.692 52.966 236.214 52.966C231.174 52.966 226.722 56.956 226.722 63.256C226.722 69.472 231.174 73.42 236.214 73.42C238.692 73.42 241.002 72.37 241.968 70.564V73H247.764ZM287.568 58.636C289.29 58.636 290.802 59.98 290.802 62.542V73H296.598V61.87C296.598 55.948 293.742 52.966 289.038 52.966C287.61 52.966 285.09 53.386 283.158 56.452C282.066 54.142 279.966 53.008 276.858 53.008C274.716 53.008 272.7 54.184 271.734 56.242V53.386H265.896V73H271.734V62.626C271.734 59.644 273.33 58.636 275.136 58.636C276.816 58.636 278.328 59.896 278.37 62.416V73H284.208V62.626C284.208 59.77 285.72 58.636 287.568 58.636ZM316.78 66.532C315.814 67.834 314.134 68.38 312.496 68.38C310.396 68.38 308.002 67.372 307.666 65.104H322.03C322.072 64.6 322.114 63.802 322.114 63.298C322.114 57.124 317.662 52.966 312.076 52.966C306.49 52.966 301.828 56.914 301.828 63.13C301.828 69.304 306.49 73.42 312.076 73.42C315.436 73.42 319.006 72.37 321.022 69.43L316.78 66.532ZM307.75 61.45C308.212 58.93 310.522 58.09 312.118 58.09C313.798 58.09 315.898 59.056 316.234 61.45H307.75ZM349.027 58.636C350.749 58.636 352.261 59.98 352.261 62.542V73H358.057V61.87C358.057 55.948 355.201 52.966 350.497 52.966C349.069 52.966 346.549 53.386 344.617 56.452C343.525 54.142 341.425 53.008 338.317 53.008C336.175 53.008 334.159 54.184 333.193 56.242V53.386H327.355V73H333.193V62.626C333.193 59.644 334.789 58.636 336.595 58.636C338.275 58.636 339.787 59.896 339.829 62.416V73H345.667V62.626C345.667 59.77 347.179 58.636 349.027 58.636ZM373.451 67.624C371.057 67.624 369.041 65.86 369.041 63.13C369.041 60.442 371.057 58.678 373.451 58.678C375.929 58.678 377.903 60.442 377.903 63.13C377.903 65.86 375.929 67.624 373.451 67.624ZM373.451 73.336C378.995 73.336 383.657 69.304 383.657 63.13C383.657 56.914 378.995 52.966 373.451 52.966C367.865 52.966 363.287 56.914 363.287 63.13C363.287 69.304 367.865 73.336 373.451 73.336ZM394.94 66.154C394.94 60.946 396.452 58.342 399.812 58.342C400.778 58.342 401.744 58.426 402.794 58.93L403.844 53.68C402.878 53.218 401.87 52.966 400.484 52.966C398.468 52.966 395.948 54.478 394.94 58.132V53.386H389.102V73H394.94V66.154ZM422.326 73H428.122V53.386H422.326V55.57C420.73 53.428 417.916 52.966 416.614 52.966C411.616 52.966 406.618 56.914 406.618 63.172C406.618 69.43 411.616 73.378 416.614 73.378C418.084 73.378 421.108 72.622 422.326 70.774V73ZM412.666 63.172C412.666 60.358 415.102 58.51 417.58 58.51C419.974 58.51 422.326 60.274 422.326 63.172C422.326 66.112 419.974 67.834 417.58 67.834C415.102 67.834 412.666 65.986 412.666 63.172ZM440.692 63.13C440.692 60.232 442.876 58.468 445.228 58.468C447.748 58.468 449.764 60.274 449.764 63.13C449.764 66.028 447.706 67.876 445.228 67.876C442.75 67.876 440.692 65.986 440.692 63.13ZM440.566 73V70.564C441.532 72.37 443.842 73.42 446.32 73.42C451.36 73.42 455.812 69.472 455.812 63.256C455.812 56.956 451.36 52.966 446.32 52.966C443.842 52.966 441.532 53.974 440.566 55.78V42.718H434.77V73H440.566ZM461.296 42.718V73H467.134V42.718H461.296ZM487.529 66.532C486.563 67.834 484.883 68.38 483.245 68.38C481.145 68.38 478.751 67.372 478.415 65.104H492.779C492.821 64.6 492.863 63.802 492.863 63.298C492.863 57.124 488.411 52.966 482.825 52.966C477.239 52.966 472.577 56.914 472.577 63.13C472.577 69.304 477.239 73.42 482.825 73.42C486.185 73.42 489.755 72.37 491.771 69.43L487.529 66.532ZM478.499 61.45C478.961 58.93 481.271 58.09 482.867 58.09C484.547 58.09 486.647 59.056 486.983 61.45H478.499ZM523.605 63.13C523.605 65.986 521.547 67.876 519.069 67.876C516.591 67.876 514.533 66.028 514.533 63.13C514.533 60.274 516.549 58.468 519.069 58.468C521.421 58.468 523.605 60.232 523.605 63.13ZM529.527 73V42.718H523.731V55.78C522.765 53.974 520.455 52.966 517.977 52.966C512.937 52.966 508.485 56.956 508.485 63.256C508.485 69.472 512.937 73.42 517.977 73.42C520.455 73.42 522.765 72.37 523.731 70.564V73H529.527ZM541.941 53.386H536.145V73H541.941V53.386ZM535.389 46.12C535.389 48.01 537.069 49.564 539.043 49.564C541.059 49.564 542.613 48.01 542.613 46.12C542.613 44.146 541.017 42.718 539.043 42.718C537.069 42.718 535.389 44.188 535.389 46.12ZM562.925 63.13C562.925 66.028 560.573 67.918 558.179 67.918C555.659 67.918 553.475 66.028 553.475 63.13C553.475 60.358 555.659 58.51 558.179 58.51C560.615 58.51 562.925 60.232 562.925 63.13ZM547.973 76.696C549.653 80.35 553.307 82.786 557.633 82.786C564.563 82.786 568.721 78.712 568.721 70.27V53.386H563.051V55.822C562.043 54.058 559.607 52.966 557.171 52.966C552.131 52.966 547.385 56.956 547.385 63.256C547.385 69.472 552.131 73.42 557.171 73.42C559.649 73.42 562.085 72.37 563.051 70.564C563.261 74.428 562.127 77.536 557.633 77.536C555.659 77.536 553.349 76.234 552.677 74.386L547.973 76.696ZM581.17 53.386H575.374V73H581.17V53.386ZM574.618 46.12C574.618 48.01 576.298 49.564 578.272 49.564C580.288 49.564 581.842 48.01 581.842 46.12C581.842 44.146 580.246 42.718 578.272 42.718C576.298 42.718 574.618 44.188 574.618 46.12ZM595.434 53.386V45.868H589.638V53.386H586.068V58.006H589.638V73H595.434V58.006H599.55V53.386H595.434ZM618.635 73H624.431V53.386H618.635V55.57C617.039 53.428 614.225 52.966 612.923 52.966C607.925 52.966 602.927 56.914 602.927 63.172C602.927 69.43 607.925 73.378 612.923 73.378C614.393 73.378 617.417 72.622 618.635 70.774V73ZM608.975 63.172C608.975 60.358 611.411 58.51 613.889 58.51C616.283 58.51 618.635 60.274 618.635 63.172C618.635 66.112 616.283 67.834 613.889 67.834C611.411 67.834 608.975 65.986 608.975 63.172ZM631.079 42.718V73H636.917V42.718H631.079ZM15.464 108.532C14.498 109.834 12.818 110.38 11.18 110.38C9.08 110.38 6.686 109.372 6.35 107.104H20.714C20.756 106.6 20.798 105.802 20.798 105.298C20.798 99.124 16.346 94.966 10.76 94.966C5.174 94.966 0.512 98.914 0.512 105.13C0.512 111.304 5.174 115.42 10.76 115.42C14.12 115.42 17.69 114.37 19.706 111.43L15.464 108.532ZM6.434 103.45C6.896 100.93 9.206 100.09 10.802 100.09C12.482 100.09 14.582 101.056 14.918 103.45H6.434ZM30.7966 104.374L23.0686 115H29.8306L34.0306 108.994L38.1886 115H44.9506L37.2646 104.374L43.7326 95.386H36.9706L34.0726 99.712L31.1326 95.386H24.3286L30.7966 104.374ZM55.0421 105.256C55.0421 102.4 57.1001 100.51 59.5781 100.51C62.0561 100.51 64.1141 102.358 64.1141 105.256C64.1141 108.112 62.0981 109.918 59.5781 109.918C57.2261 109.918 55.0421 108.196 55.0421 105.256ZM49.1201 95.386V124.618H54.9161V112.606C55.8821 114.412 58.1921 115.42 60.6701 115.42C65.7101 115.42 70.1621 111.43 70.1621 105.13C70.1621 98.914 65.7101 94.966 60.6701 94.966C58.1921 94.966 55.8821 96.016 54.9161 97.822V95.386H49.1201ZM89.4217 108.532C88.4557 109.834 86.7757 110.38 85.1377 110.38C83.0377 110.38 80.6437 109.372 80.3077 107.104H94.6717C94.7137 106.6 94.7557 105.802 94.7557 105.298C94.7557 99.124 90.3037 94.966 84.7177 94.966C79.1317 94.966 74.4697 98.914 74.4697 105.13C74.4697 111.304 79.1317 115.42 84.7177 115.42C88.0777 115.42 91.6477 114.37 93.6637 111.43L89.4217 108.532ZM80.3917 103.45C80.8537 100.93 83.1637 100.09 84.7597 100.09C86.4397 100.09 88.5397 101.056 88.8757 103.45H80.3917ZM105.836 108.154C105.836 102.946 107.348 100.342 110.708 100.342C111.674 100.342 112.64 100.426 113.69 100.93L114.74 95.68C113.774 95.218 112.766 94.966 111.38 94.966C109.364 94.966 106.844 96.478 105.836 100.132V95.386H99.9975V115H105.836V108.154ZM124.813 95.386H119.017V115H124.813V95.386ZM118.261 88.12C118.261 90.01 119.941 91.564 121.915 91.564C123.931 91.564 125.485 90.01 125.485 88.12C125.485 86.146 123.889 84.718 121.915 84.718C119.941 84.718 118.261 86.188 118.261 88.12ZM145.21 108.532C144.244 109.834 142.564 110.38 140.926 110.38C138.826 110.38 136.432 109.372 136.096 107.104H150.46C150.502 106.6 150.544 105.802 150.544 105.298C150.544 99.124 146.092 94.966 140.506 94.966C134.92 94.966 130.258 98.914 130.258 105.13C130.258 111.304 134.92 115.42 140.506 115.42C143.866 115.42 147.436 114.37 149.452 111.43L145.21 108.532ZM136.18 103.45C136.642 100.93 138.952 100.09 140.548 100.09C142.228 100.09 144.328 101.056 144.664 103.45H136.18ZM161.623 104.626C161.623 101.644 163.177 100.636 165.235 100.636C167.209 100.636 168.637 101.896 168.637 104.542V115H174.475V103.282C174.475 97.696 171.703 94.966 167.293 94.966C164.941 94.966 162.673 96.268 161.623 98.242V95.386H155.785V115H161.623V104.626ZM179.74 105.13C179.74 111.304 184.822 115.42 190.408 115.42C193.936 115.42 197.086 113.908 198.934 111.22L194.188 107.86C193.39 109.162 191.92 109.834 190.408 109.834C187.93 109.834 185.536 107.944 185.536 105.13C185.536 102.316 187.93 100.552 190.408 100.552C191.92 100.552 193.39 101.224 194.188 102.526L198.934 99.124C197.044 96.436 193.936 94.966 190.408 94.966C184.822 94.966 179.74 98.914 179.74 105.13ZM217.773 108.532C216.807 109.834 215.127 110.38 213.489 110.38C211.389 110.38 208.995 109.372 208.659 107.104H223.023C223.065 106.6 223.107 105.802 223.107 105.298C223.107 99.124 218.655 94.966 213.069 94.966C207.483 94.966 202.821 98.914 202.821 105.13C202.821 111.304 207.483 115.42 213.069 115.42C216.429 115.42 219.999 114.37 222.015 111.43L217.773 108.532ZM208.743 103.45C209.205 100.93 211.515 100.09 213.111 100.09C214.791 100.09 216.891 101.056 217.227 103.45H208.743ZM235.993 107.608C237.463 107.986 237.925 108.448 237.925 109.288C237.925 110.296 236.833 110.884 235.531 110.926C233.893 110.926 232.675 109.792 232.633 108.658H227.173C227.173 113.026 231.415 115.42 235.363 115.42C239.479 115.42 243.847 113.446 243.847 109.288C243.847 107.986 243.259 104.92 238.513 103.576L235.195 102.694C234.019 102.4 233.515 101.854 233.473 101.224C233.431 100.342 234.229 99.754 235.531 99.754C236.497 99.754 237.715 100.006 237.757 101.476H243.259C243.259 96.646 239.059 94.966 235.195 94.966C231.079 94.966 227.551 97.654 227.551 100.552C227.551 102.358 227.509 105.382 233.431 106.936L235.993 107.608ZM248.752 111.892C248.752 113.95 250.39 115.42 252.364 115.42C254.338 115.42 256.018 113.95 256.018 111.892C256.018 109.876 254.338 108.406 252.364 108.406C250.39 108.406 248.752 109.876 248.752 111.892Z" fill="url(#paint0_linear)"/>
<defs>
<linearGradient id="paint0_linear" x1="291" y1="-124" x2="221" y2="216" gradientUnits="userSpaceOnUse">
<stop offset="0.104167" stop-color="#FF6A97"/>
<stop offset="0.604167" stop-color="#C89B7B"/>
<stop offset="1" stop-color="#00FFC2"/>
</linearGradient>
</defs>
</svg>
