<svg width="15" height="30" viewBox="0 0 15 30" fill="none" xmlns="http://www.w3.org/2000/svg">
<path d="M5.99749 28.3772L5.99749 12.3252C5.99749 11.6017 6.58665 11.0125 7.31018 11.0125C8.03371 11.0125 8.62286 11.6017 8.62286 12.3252L8.62286 28.3669C8.62286 29.0904 8.03371 29.6796 7.31018 29.6796C6.58665 29.6796 5.99749 29.1008 5.99749 28.3772Z" fill="white"/>
<path d="M0.63303 22.3409C0.63303 21.9688 0.788072 21.5967 1.09816 21.3383C1.64597 20.8732 2.47286 20.9456 2.93798 21.4934L7.33084 26.6821L11.9511 21.4727C12.4265 20.9352 13.2534 20.8835 13.8012 21.359C14.3387 21.8345 14.3904 22.6614 13.9149 23.2092L8.2921 29.5556C8.04403 29.8346 7.68226 30 7.29983 30C6.91739 30 6.56596 29.8243 6.3179 29.5349L0.943113 23.1885C0.736391 22.9404 0.63303 22.6407 0.63303 22.3409Z" fill="white"/>
<path d="M5.99751 17.7104L5.99751 1.66869C5.99751 0.945161 6.58667 0.356003 7.3102 0.356003C8.03373 0.356003 8.61255 0.945161 8.61255 1.66869L8.61255 17.7104C8.61255 18.4339 8.02339 19.023 7.29986 19.023C6.57633 19.023 5.99751 18.4339 5.99751 17.7104Z" fill="white"/>
<path d="M0.364263 7.69465C0.364263 7.38457 0.477962 7.07448 0.695021 6.82641L6.31787 0.480037C6.56594 0.200961 6.9277 0.0355832 7.31014 0.0355832C7.69257 0.0355832 8.044 0.211297 8.29207 0.500709L13.6565 6.84709C14.1216 7.3949 14.0493 8.22179 13.5015 8.68692C12.9537 9.15204 12.1268 9.07969 11.6616 8.53187L7.26879 3.34314L2.64855 8.55255C2.17308 9.09003 1.3462 9.14171 0.798381 8.66624C0.519306 8.41818 0.364263 8.05641 0.364263 7.69465Z" fill="white"/>
</svg>
