<svg width="14" height="20" viewBox="0 0 14 20" fill="none" xmlns="http://www.w3.org/2000/svg">
<path d="M5.99751 17.7104L5.99751 1.66869C5.99751 0.945161 6.58667 0.356003 7.3102 0.356003C8.03373 0.356003 8.61255 0.945161 8.61255 1.66869L8.61255 17.7104C8.61255 18.4339 8.02339 19.023 7.29986 19.023C6.57633 19.023 5.99751 18.4339 5.99751 17.7104Z" fill="white"/>
<path d="M0.364263 7.69465C0.364263 7.38457 0.477962 7.07448 0.695021 6.82641L6.31787 0.480037C6.56594 0.200961 6.9277 0.0355832 7.31014 0.0355832C7.69257 0.0355832 8.044 0.211297 8.29207 0.500709L13.6565 6.84709C14.1216 7.3949 14.0493 8.22179 13.5015 8.68692C12.9537 9.15204 12.1268 9.07969 11.6616 8.53187L7.26879 3.34314L2.64855 8.55255C2.17308 9.09003 1.3462 9.14171 0.798381 8.66624C0.519306 8.41818 0.364263 8.05641 0.364263 7.69465Z" fill="white"/>
</svg>
